<svg width="23" height="24" viewBox="0 0 23 24" fill="none" xmlns="http://www.w3.org/2000/svg">
<path fill-rule="evenodd" clip-rule="evenodd" d="M13.3871 15.773C13.5373 15.6227 13.6217 15.4189 13.6217 15.2064C13.6217 14.994 13.5373 14.7902 13.3871 14.6399L10.7484 12.0013L13.3871 9.36259C13.5331 9.21146 13.6138 9.00905 13.612 8.79896C13.6102 8.58886 13.5259 8.38788 13.3773 8.23932C13.2288 8.09075 13.0278 8.00648 12.8177 8.00465C12.6076 8.00283 12.4052 8.08359 12.2541 8.22956L9.0489 11.4347C8.89868 11.585 8.81429 11.7888 8.81429 12.0013C8.81429 12.2137 8.89868 12.4175 9.0489 12.5678L12.2541 15.773C12.4043 15.9232 12.6081 16.0076 12.8206 16.0076C13.0331 16.0076 13.2368 15.9232 13.3871 15.773Z" fill="#524F51" stroke="#F4F4F5" stroke-width="0.5"/>
</svg>
