<svg width="14" height="14" viewBox="0 0 14 14" fill="none" xmlns="http://www.w3.org/2000/svg">
<mask id="mask0_3317_333" style="mask-type:alpha" maskUnits="userSpaceOnUse" x="0" y="0" width="14" height="14">
<rect x="0.478516" y="0.691406" width="13.043" height="13.043" fill="#D9D9D9"/>
</mask>
<g mask="url(#mask0_3317_333)">
<path d="M7.37025 2.40426C7.42674 2.2299 7.67342 2.2299 7.72992 2.40426L8.95288 6.17888C8.97076 6.23406 9.01298 6.27798 9.06742 6.29802L12.6435 7.61416C12.8085 7.67489 12.8085 7.90824 12.6435 7.96897L9.06742 9.28511C9.01298 9.30515 8.97076 9.34907 8.95288 9.40425L7.72992 13.1789C7.67342 13.3532 7.42674 13.3532 7.37025 13.1789L6.14729 9.40425C6.12941 9.34907 6.08719 9.30515 6.03275 9.28511L2.45663 7.96897C2.29164 7.90824 2.29164 7.67489 2.45663 7.61416L6.03275 6.29802C6.08719 6.27798 6.12941 6.23406 6.14729 6.17888L7.37025 2.40426Z" fill="url(#paint0_linear_3317_333)"/>
<path d="M3.16388 1.06143C3.20154 0.945195 3.36599 0.945195 3.40365 1.06143L3.88342 2.54221C3.89534 2.579 3.92349 2.60828 3.95978 2.62164L5.37216 3.14144C5.48215 3.18193 5.48215 3.3375 5.37216 3.37798L3.95978 3.89779C3.92349 3.91115 3.89534 3.94042 3.88342 3.97721L3.40365 5.45799C3.36599 5.57423 3.20154 5.57423 3.16388 5.45799L2.68411 3.97721C2.67219 3.94042 2.64404 3.91115 2.60775 3.89779L1.19537 3.37798C1.08538 3.3375 1.08538 3.18193 1.19537 3.14144L2.60775 2.62164C2.64404 2.60828 2.67219 2.579 2.68411 2.54221L3.16388 1.06143Z" fill="url(#paint1_linear_3317_333)"/>
</g>
<defs>
<linearGradient id="paint0_linear_3317_333" x1="7.55008" y1="1.84921" x2="7.55008" y2="13.7339" gradientUnits="userSpaceOnUse">
<stop stop-color="#3CFFB9"/>
<stop offset="1" stop-color="#3E51FF"/>
</linearGradient>
<linearGradient id="paint1_linear_3317_333" x1="3.28376" y1="0.691406" x2="3.28376" y2="5.82802" gradientUnits="userSpaceOnUse">
<stop stop-color="#3CFFB9"/>
<stop offset="1" stop-color="#3E51FF"/>
</linearGradient>
</defs>
</svg>
